# xmcd CD database file
#
# Track frame offsets:
#	150
#	13232
#	24195
#	36065
#	48335
#	60580
#	71492
#	86665
#	98592
#	109992
#	123720
#	134980
#	146765
#	159485
#	171655
#	184662
#	196457
#	209052
#	213777
#	218517
#	223237
#	227970
#	232697
#	237430
#	242160
#	246887
#	251625
#	256342
#	261070
#	265805
#	270530
#	275262
#	279982
#	284715
#	289455
#	291922
#	294410
#	296885
#	299362
#	301845
#	304315
#	306797
#	309277
#	311762
#	314235
#	316712
#	319195
#	321665
#	324140
#	326607
#	329082
#
# Disc length: 4418 seconds
#
# Revision: 0
# Processed by: cddbd v1.4PL0 Copyright (c) Steve Scherf et al.
# Submitted via: CDex 1.50
#
DISCID=3b114033
DTITLE=Chappell Recorded Music Library (ChapAV167) - The Nu Chill
DYEAR=2000
DGENRE=Jazz
TTITLE0=The Nu Chill
TTITLE1=The Nu Chill
TTITLE2=The Nu Chill
TTITLE3=The Nu Chill
TTITLE4=The Nu Chill
TTITLE5=The Nu Chill
TTITLE6=The Nu Chill
TTITLE7=The Nu Chill
TTITLE8=The Nu Chill
TTITLE9=The Nu Chill
TTITLE10=The Nu Chill
TTITLE11=The Nu Chill
TTITLE12=The Nu Chill
TTITLE13=The Nu Chill
TTITLE14=The Nu Chill
TTITLE15=The Nu Chill
TTITLE16=The Nu Chill
TTITLE17=The Nu Chill
TTITLE18=The Nu ChillThe Nu Chill
TTITLE19=The Nu Chill
TTITLE20=The Nu Chill
TTITLE21=The Nu Chill
TTITLE22=The Nu Chill
TTITLE23=The Nu Chill
TTITLE24=The Nu Chill
TTITLE25=The Nu Chill
TTITLE26=The Nu Chill
TTITLE27=The Nu Chill
TTITLE28=The Nu Chill
TTITLE29=The Nu Chill
TTITLE30=The Nu Chill
TTITLE31=The Nu Chill
TTITLE32=The Nu Chill
TTITLE33=The Nu Chill
TTITLE34=The Nu Chill
TTITLE35=The Nu Chill
TTITLE36=The Nu Chill
TTITLE37=The Nu Chill
TTITLE38=The Nu Chill
TTITLE39=The Nu Chill
TTITLE40=The Nu Chill
TTITLE41=The Nu Chill
TTITLE42=The Nu Chill
TTITLE43=The Nu Chill
TTITLE44=The Nu Chill
TTITLE45=The Nu Chill
TTITLE46=The Nu Chill
TTITLE47=The Nu Chill
TTITLE48=The Nu Chill
TTITLE49=The Nu Chill
TTITLE50=The Nu Chill
EXTD=YEAR: 2000
EXTT0=
EXTT1=
EXTT2=
EXTT3=
EXTT4=
EXTT5=
EXTT6=
EXTT7=
EXTT8=
EXTT9=
EXTT10=
EXTT11=
EXTT12=
EXTT13=
EXTT14=
EXTT15=
EXTT16=
EXTT17=
EXTT18=
EXTT19=
EXTT20=
EXTT21=
EXTT22=
EXTT23=
EXTT24=
EXTT25=
EXTT26=
EXTT27=
EXTT28=
EXTT29=
EXTT30=
EXTT31=
EXTT32=
EXTT33=
EXTT34=
EXTT35=
EXTT36=
EXTT37=
EXTT38=
EXTT39=
EXTT40=
EXTT41=
EXTT42=
EXTT43=
EXTT44=
EXTT45=
EXTT46=
EXTT47=
EXTT48=
EXTT49=
EXTT50=
PLAYORDER=
